<?xml version="1.0" standalone="no"?>
<!DOCTYPE svg PUBLIC "-//W3C//DTD SVG 20010904//EN"
 "http://www.w3.org/TR/2001/REC-SVG-20010904/DTD/svg10.dtd">
<svg version="1.0" xmlns="http://www.w3.org/2000/svg"
 width="1352.000000pt" height="1352.000000pt" viewBox="0 0 1352.000000 1352.000000"
 preserveAspectRatio="xMidYMid meet">
<metadata>
Created by potrace 1.14, written by Peter Selinger 2001-2017
</metadata>
<g transform="translate(0.000000,1352.000000) scale(0.100000,-0.100000)"
fill="#000000" stroke="none">
<path d="M6280 13499 c0 -6 -32 -102 -71 -213 -39 -110 -89 -253 -111 -316
-22 -63 -60 -171 -84 -240 -25 -69 -47 -132 -49 -140 -2 -8 -31 -94 -65 -190
-34 -96 -68 -195 -76 -220 -7 -25 -20 -54 -28 -65 -16 -22 30 -51 -626 392
-113 76 -331 223 -485 327 -154 104 -287 195 -296 202 -8 8 -24 14 -34 14 -20
0 -20 6 10 -185 9 -55 18 -116 21 -135 2 -19 20 -129 39 -245 19 -115 37 -232
41 -260 3 -27 8 -52 9 -55 2 -3 6 -23 9 -46 4 -22 20 -116 36 -209 16 -94 26
-173 21 -178 -4 -4 -21 3 -37 16 -133 110 -394 290 -579 399 -175 103 -396
211 -407 200 -7 -7 7 -32 39 -73 210 -270 432 -704 619 -1212 26 -71 53 -131
59 -134 7 -2 73 27 146 66 173 90 369 179 544 248 77 30 154 61 170 68 42 18
358 121 430 140 33 9 94 25 135 37 41 11 82 22 90 23 120 28 242 55 270 60 19
3 53 10 75 15 65 15 242 42 350 55 28 3 66 8 85 10 41 5 125 14 190 20 251 24
879 24 1020 1 14 -2 63 -7 110 -10 47 -4 99 -9 115 -11 17 -2 48 -6 70 -9 49
-6 299 -44 340 -51 17 -3 64 -13 105 -21 41 -9 86 -18 100 -20 14 -3 87 -21
163 -40 77 -19 143 -32 147 -29 5 3 12 27 15 53 4 26 8 58 10 72 2 14 11 79
20 145 58 423 180 898 291 1134 33 69 50 121 40 121 -7 0 -178 -139 -259 -211
-166 -148 -386 -377 -513 -534 -59 -73 -94 -111 -95 -105 0 3 -2 12 -3 20 -2
8 -6 58 -10 110 -4 52 -9 113 -11 135 -3 22 -7 83 -10 135 -9 148 -15 231 -20
285 -2 28 -7 95 -11 150 -3 55 -7 116 -9 135 -3 30 -12 156 -21 305 -3 56 -3
55 -17 55 -8 0 -51 -41 -98 -91 -46 -51 -100 -109 -119 -129 -65 -69 -245
-262 -269 -289 -13 -14 -53 -58 -90 -97 -36 -38 -95 -102 -131 -140 -226 -243
-298 -320 -319 -343 -84 -92 -115 -123 -135 -136 -29 -19 -34 -14 -124 129
-158 249 -216 341 -222 346 -3 3 -10 14 -16 25 -10 18 -299 473 -358 565 -13
19 -44 68 -70 108 -46 71 -56 82 -56 61z"/>
<path d="M7077 11344 c-1 -1 -70 -5 -153 -8 -83 -4 -160 -8 -170 -10 -10 -2
-55 -7 -99 -10 -44 -4 -91 -9 -105 -11 -14 -2 -50 -7 -80 -10 -30 -4 -71 -9
-90 -11 -19 -2 -71 -11 -115 -18 -44 -8 -96 -17 -115 -20 -165 -24 -503 -109
-745 -186 -147 -47 -168 -54 -310 -109 -197 -75 -264 -103 -443 -188 -85 -40
-108 -63 -63 -63 41 0 183 -44 261 -82 141 -68 243 -154 345 -293 64 -86 150
-241 138 -248 -4 -3 -48 19 -96 49 -97 58 -211 106 -327 136 -104 27 -283 32
-375 12 -303 -70 -502 -311 -540 -654 -13 -114 -8 -300 10 -390 3 -14 8 -38
10 -55 18 -99 66 -239 139 -403 52 -118 49 -121 -52 -55 -252 163 -419 456
-466 813 -7 52 -9 245 -2 275 2 11 7 40 11 65 4 25 9 56 12 70 6 37 53 198 70
238 8 19 13 36 11 37 -5 6 -193 -129 -272 -196 -382 -316 -610 -547 -935 -944
-113 -138 -441 -623 -441 -652 0 -3 -8 -17 -19 -31 -10 -15 -34 -56 -53 -92
-20 -36 -49 -91 -67 -123 -17 -32 -31 -62 -31 -67 0 -15 35 -29 87 -35 26 -3
55 -8 63 -10 8 -2 39 -7 69 -10 30 -4 63 -9 75 -11 12 -2 41 -7 66 -10 25 -3
54 -8 65 -10 11 -2 38 -6 60 -9 22 -3 54 -7 72 -9 35 -5 53 -13 53 -24 0 -4
-15 -23 -33 -42 -308 -331 -699 -1046 -919 -1680 -58 -167 -145 -460 -163
-545 -2 -11 -13 -61 -24 -112 -48 -214 -78 -479 -56 -501 7 -7 63 8 250 66
378 117 737 222 744 217 5 -2 -1 -45 -14 -94 -13 -49 -26 -106 -29 -126 -4
-21 -8 -47 -11 -59 -8 -37 -22 -157 -30 -256 -27 -336 -27 -1048 0 -1305 2
-22 7 -69 10 -105 4 -36 8 -78 10 -95 3 -16 7 -50 9 -74 5 -44 15 -112 20
-141 2 -8 6 -37 10 -65 4 -27 11 -70 16 -95 6 -25 12 -56 14 -70 3 -14 10 -50
16 -80 6 -30 13 -66 16 -80 14 -73 81 -311 119 -425 80 -240 203 -495 239
-495 14 0 210 157 336 269 84 75 357 345 440 437 30 33 73 80 96 105 179 195
475 575 689 884 64 94 119 172 120 173 10 11 33 -60 72 -213 8 -33 16 -67 18
-75 12 -45 53 -230 59 -260 3 -19 8 -44 10 -55 2 -11 9 -56 16 -100 6 -44 13
-91 16 -105 2 -14 6 -47 10 -75 3 -27 7 -63 9 -80 26 -198 27 -864 1 -1025 -2
-14 -7 -54 -11 -90 -13 -136 -17 -167 -25 -220 -5 -30 -12 -80 -15 -110 -3
-30 -8 -62 -10 -70 -3 -8 -7 -35 -10 -60 -3 -25 -7 -52 -10 -60 -2 -8 -6 -33
-10 -55 -3 -22 -7 -47 -10 -55 -2 -8 -6 -33 -10 -55 -3 -22 -7 -47 -10 -55 -2
-8 -6 -31 -9 -50 -3 -19 -8 -46 -11 -60 -6 -31 -11 -54 -31 -155 -17 -82 -20
-124 -11 -148 6 -16 233 -129 382 -190 100 -41 361 -131 410 -142 11 -2 44
-11 73 -19 28 -8 52 -13 52 -11 0 2 18 -2 39 -10 22 -7 56 -16 76 -19 20 -3
69 -13 108 -21 161 -32 269 -36 817 -32 300 3 554 7 565 10 11 2 43 8 70 11
28 4 57 9 65 11 17 5 57 12 110 21 19 3 55 10 80 16 25 5 52 11 60 13 537 115
1153 375 1604 678 101 68 105 67 125 -22 6 -25 31 -125 56 -221 26 -96 48
-182 50 -190 28 -115 60 -227 67 -237 5 -6 17 -9 26 -6 16 6 271 180 282 193
3 3 32 25 65 50 248 184 548 469 759 720 327 390 578 821 750 1287 94 256 178
574 221 833 3 19 8 42 10 50 2 8 7 40 10 70 4 30 10 74 14 96 5 23 7 53 5 67
-1 14 3 31 10 36 10 8 35 -13 102 -86 49 -53 104 -113 123 -132 18 -20 67 -74
110 -120 110 -121 132 -142 144 -138 10 3 57 133 86 237 5 19 23 85 40 145 17
61 33 119 35 130 2 11 7 27 10 35 3 8 8 26 10 40 3 14 16 72 29 130 14 58 28
125 33 150 4 25 8 47 9 50 2 8 16 93 20 120 2 14 9 54 14 90 6 36 13 90 16
120 3 30 8 71 10 90 5 44 14 153 21 245 5 82 6 507 0 580 -2 28 -7 91 -10 142
-4 51 -9 100 -10 110 -2 10 -7 45 -10 78 -4 33 -9 67 -11 75 -2 8 -6 38 -10
65 -3 28 -8 61 -10 75 -13 61 -16 77 -20 105 -3 17 -15 73 -26 125 -11 52 -22
103 -24 112 -9 45 -60 226 -96 343 -144 468 -361 941 -642 1400 -130 214 -331
514 -344 515 -17 0 -20 -8 -28 -70 -3 -30 -8 -62 -10 -70 -3 -8 -7 -40 -10
-70 -3 -30 -8 -63 -11 -72 -6 -19 -30 -25 -36 -9 -1 6 -64 74 -138 152 -246
258 -259 274 -260 295 0 12 15 33 37 50 80 64 104 96 101 139 -1 34 -24 116
-45 165 -3 8 -7 20 -8 27 -4 18 -80 125 -113 160 -17 17 -40 34 -52 38 -52 16
-248 -85 -333 -172 -28 -29 -56 -53 -62 -53 -6 0 -55 31 -109 70 -53 38 -109
75 -124 83 -96 50 -211 107 -235 116 -42 16 -47 -12 -10 -52 46 -49 163 -204
163 -215 0 -6 4 -12 8 -14 4 -1 30 -41 57 -88 89 -156 138 -209 330 -360 39
-30 72 -57 75 -60 3 -3 30 -25 60 -50 168 -137 405 -364 431 -411 13 -25 19
-27 -109 20 -94 35 -240 67 -357 78 -143 14 -508 7 -602 -11 -11 -3 -43 -8
-70 -12 -104 -17 -236 -56 -305 -90 -29 -15 -78 -19 -78 -6 0 4 -26 34 -58 68
-31 33 -98 105 -148 160 -140 151 -321 331 -538 534 -27 25 -53 56 -58 70 -14
34 -13 155 1 210 18 68 89 204 127 241 35 35 43 63 22 72 -22 8 -166 -32 -242
-67 -72 -33 -167 -93 -215 -135 -13 -12 -32 -21 -42 -21 -10 0 -60 27 -111 61
-177 115 -598 303 -728 324 -122 20 -201 5 -407 -81 -205 -84 -386 -194 -531
-320 -46 -41 -43 -46 102 -127 100 -57 146 -80 241 -122 58 -26 200 -73 255
-84 30 -6 69 -14 85 -17 17 -4 159 -8 316 -9 255 -2 401 -9 418 -19 3 -2 24
-7 46 -10 51 -8 150 -57 195 -97 270 -238 480 -441 655 -634 50 -54 99 -108
109 -118 19 -20 19 -20 -15 -13 -19 4 -41 9 -49 12 -50 14 -169 45 -190 49
-14 3 -36 7 -50 10 -46 10 -157 25 -242 32 -81 8 -273 8 -893 2 -366 -3 -447
3 -604 48 -47 13 -93 26 -102 28 -44 10 -189 82 -269 134 -287 185 -463 446
-495 736 -6 60 -17 72 -75 80 -25 3 -56 8 -70 10 -14 2 -43 7 -65 9 -22 3 -49
8 -60 10 -11 2 -40 7 -65 10 -25 4 -54 8 -65 10 -11 3 -30 5 -42 5 -15 1 -23
7 -23 19 0 20 180 199 285 283 138 111 322 221 440 264 28 10 55 22 60 25 6 4
22 10 38 14 38 9 35 36 -10 72 -147 117 -202 167 -195 180 11 20 115 99 222
169 92 60 306 185 317 185 3 0 32 13 64 30 164 83 461 188 689 244 280 68 358
82 460 79 70 -1 82 -5 185 -58 115 -60 142 -74 277 -151 152 -86 311 -186 537
-336 123 -82 231 -148 240 -146 38 7 128 243 151 398 16 101 29 150 41 150 22
0 265 -123 404 -205 384 -225 729 -478 1043 -765 68 -61 126 -110 129 -107 3
3 -33 95 -80 204 -132 308 -208 544 -237 738 -5 39 -12 81 -14 95 -3 14 -5 33
-5 42 -1 16 -58 79 -107 118 -11 8 -46 37 -79 63 -33 27 -67 54 -75 60 -44 35
-230 157 -239 157 -6 0 -11 3 -11 8 0 4 -10 12 -23 18 -12 6 -92 47 -177 91
-85 44 -173 87 -195 96 -22 9 -83 33 -135 55 -118 48 -325 119 -490 167 -223
66 -254 68 -227 15 50 -98 109 -322 123 -465 3 -33 8 -63 10 -66 2 -4 -2 -12
-10 -18 -10 -9 -20 -3 -42 26 -60 80 -345 352 -462 442 -118 92 -285 202 -347
230 -16 7 -55 15 -85 16 -30 2 -111 7 -180 11 -106 6 -478 12 -483 8z m2206
-4088 c161 -106 290 -177 422 -232 142 -58 154 -64 160 -74 9 -14 9 -721 1
-747 -4 -11 -41 -47 -82 -79 -42 -33 -81 -64 -88 -70 -21 -20 -321 -241 -403
-297 -188 -129 -450 -273 -623 -341 -25 -10 -54 -22 -65 -27 -94 -39 -302 -78
-393 -73 -69 4 -91 19 -128 90 -17 33 -47 89 -67 127 -77 141 -111 204 -150
277 -22 41 -43 80 -47 85 -4 6 -31 55 -60 110 -29 55 -92 170 -139 255 -124
224 -125 226 -118 243 6 16 97 86 247 191 52 36 100 69 105 74 20 16 301 189
360 222 292 161 650 310 810 336 17 2 44 9 60 13 17 5 36 10 43 10 7 1 77 -41
155 -93z m1613 -5 c34 -79 97 -282 124 -396 28 -118 33 -140 45 -219 4 -21 8
-46 10 -56 19 -100 27 -436 12 -564 -12 -109 -46 -262 -79 -361 -36 -107 -88
-217 -105 -222 -6 -3 -25 23 -41 55 -89 180 -188 315 -386 525 -159 171 -147
127 -149 544 -1 195 1 362 4 372 4 9 22 27 40 39 105 67 347 230 364 244 131
109 131 110 161 39z m-581 -1850 c11 -7 41 -42 65 -78 25 -35 50 -71 57 -78
20 -21 119 -224 153 -312 31 -81 39 -139 26 -181 -4 -11 -9 -29 -11 -39 -15
-62 -57 -194 -90 -279 -85 -221 -207 -419 -356 -578 -94 -101 -247 -228 -268
-224 -11 2 -15 33 -17 148 -2 123 -20 318 -39 410 -3 14 -10 52 -16 85 -17 97
-41 175 -54 175 -10 0 -91 -63 -105 -81 -13 -18 -208 -141 -288 -183 -164 -84
-473 -193 -512 -181 -11 4 -29 23 -39 43 -20 41 -23 47 -186 342 -167 305
-168 307 -163 322 3 8 42 21 94 31 216 44 399 131 729 345 118 76 332 231 379
274 42 38 72 44 211 43 75 -1 138 1 140 5 7 12 269 4 290 -9z"/>
</g>
</svg>
